<svg xmlns="http://www.w3.org/2000/svg" width="12.021" height="9.192"><defs><style>.cls-1{fill:#fff}.cls-2,.cls-3{stroke:none}.cls-3{fill:#707070}</style></defs><g id="Group_6096" data-name="Group 6096" transform="translate(-314.757 -1048.222)"><g id="Group_6116" data-name="Group 6116"><g id="Path_6903" class="cls-1" data-name="Path 6903"><path d="M4.886 1.5H1a.5.5 0 0 1 0-1h4a.5.5 0 0 1 .5.5c-.018.098-.295.337-.614.5z" class="cls-2" transform="rotate(-135 378.498 462.64)"/><path d="M1 0h4a1 1 0 0 1 1 1c0 .552-1 1-1 1H1a1 1 0 0 1 0-2z" class="cls-3" transform="rotate(-135 378.498 462.64)"/></g></g><g id="Group_6115" data-name="Group 6115"><g id="Group_6117" data-name="Group 6117"><g id="Path_6904" class="cls-1" data-name="Path 6904"><path d="M1 10.5a.5.5 0 0 1-.5-.5V1a.5.5 0 0 1 1 0v9a.5.5 0 0 1-.5.5z" class="cls-2" transform="rotate(45 -1102.634 916.86)"/><path d="M1 1v9l.001-9H1m0-1a1 1 0 0 1 1 1v9a1 1 0 0 1-2 0V1a1 1 0 0 1 1-1z" class="cls-3" transform="rotate(45 -1102.634 916.86)"/></g></g></g></g></svg>